<mxfile host="app.diagrams.net" modified="2024-06-16T02:35:23.579Z" agent="Mozilla/5.0 (Windows NT 10.0; Win64; x64) AppleWebKit/537.36 (KHTML, like Gecko) Chrome/126.0.0.0 Safari/537.36" version="24.5.4" etag="-WDf4I7OeAjaYFE0KW6e" type="github">
  <diagram name="Page-1" id="Tjy9NSyXYdn3bojgzi-B">
    <mxGraphModel>
      <root>
        <mxCell id="0" />
        <mxCell id="1" parent="0" />
      </root>
    </mxGraphModel>
  </diagram>
</mxfile>
